<svg xmlns="http://www.w3.org/2000/svg" viewBox="0 0 828.04 771.84"><defs><style>.cls-1{fill:#feae2e;}.cls-2{fill:#fff;}</style></defs><title>Asset 1</title><g id="Layer_2" data-name="Layer 2"><g id="Layer_1-2" data-name="Layer 1"><g id="Layer_2-2" data-name="Layer 2"><g id="Layer_3" data-name="Layer 3"><path class="cls-1" d="M828,411.43v12c-.27,1.28-.46,2.58-.83,3.82-1.63,5.5-3.08,11.07-5,16.46-6.7,18.77-15.19,36.76-24.06,54.57-10.4,20.87-21.59,41.31-33.74,61.22-8.72,14.3-17.75,28.39-28.39,41.37-3.42,4.17-7.33,8-10.86,12.06A435.61,435.61,0,0,1,693,646.74,457.27,457.27,0,0,1,574,727.15,473.36,473.36,0,0,1,475.29,761a416.2,416.2,0,0,1-44.77,7.69c-11,1.21-22.06,1.84-33.09,2.74a13.54,13.54,0,0,0-1.89.41H361a5.59,5.59,0,0,0-1.38-.4c-11.49-.42-22.92-1.52-34.32-3A368.37,368.37,0,0,1,273,757.7c-13.39-3.78-26.56-8.18-39-14.43-23.55-11.77-44.19-27.53-63-45.86a329.36,329.36,0,0,1-37.62-44c-11.51-16.09-21.79-32.9-29.65-51.1a100,100,0,0,1-6.55-20.14c-1.08-5.46-.33-10.42,3.35-14.77,1.4-1.65,2.7-3.39,4.14-5A211.28,211.28,0,0,1,126.34,542c16.42-13.89,33.64-26.74,51-39.43,2-1.46,4-2.95,5.93-4.36-.57-3.56-4-12.07-6-14.83-3,.37-6,.72-9,1.13a358.93,358.93,0,0,1-41.82,3.08,242.9,242.9,0,0,1-41.82-2.72,148.73,148.73,0,0,1-36.89-10.43C34.68,468.7,23.12,460.87,14,449.66,7.67,441.77,3,433,1.19,422.94c-.32-1.69-.79-3.34-1.19-5v-.5a5.64,5.64,0,0,0,.48-1.1c.67-3.16,2.79-4.57,5.83-4.91.74-.09,1.49-.17,2.23-.23,15.12-1.06,30.25-1.91,45.34-3.22s30-2.84,45-4.7c14.78-1.85,29.5-4.21,44.24-6.39,3-.45,6-1.09,9.12-1.66-.3-3.16-.52-6.06-.84-9-1.54-13.83-2.39-27.71-2.74-41.6a452,452,0,0,1,2.77-65.08,349.27,349.27,0,0,1,9.65-50.72c5.81-21.29,13.67-41.75,24.91-60.82,4.7-8,9.78-15.72,16.19-22.46a381.27,381.27,0,0,1,53.46-46.87c30.53-22,63.74-38.27,100.5-46.92a255.55,255.55,0,0,1,42.44-6.31,233.88,233.88,0,0,1,27-.48c9.4.49,18.8,1,28.17,1.76,9.78.85,19.53,2.19,29.31,3.11a91.61,91.61,0,0,0,11.48.16,9.42,9.42,0,0,0,9-5.85,83.81,83.81,0,0,1,19.65-26.54C537.56,4.57,554.66-.88,573.92.12c13.06.67,25.42,4.23,37.27,9.62a157,157,0,0,1,50.47,36.94,139.06,139.06,0,0,1,24.59,35.94c5.39,11.61,8.86,23.7,8.52,36.63-.19,7-1.09,13.94-4.27,20.37a22.82,22.82,0,0,0-1.3,3.24c-1.28,4-.43,6.85,2.78,9.58a20.84,20.84,0,0,1,1.9,1.62c4.38,4.57,8.82,9.08,13.08,13.76a534.79,534.79,0,0,1,89.78,134.86c11.13,23.91,20.23,48.55,26,74.33,2.43,10.81,4.49,21.68,4.89,32.8A8.37,8.37,0,0,0,828,411.43Z"/></g></g><g id="Layer_2-3" data-name="Layer 2"><g id="Layer_4" data-name="Layer 4"><path class="cls-2" d="M367.4,385.92l-24.79,11.62a151.62,151.62,0,0,1,24.21,38.38c22,49.56,15.51,100.52-14.47,113.82s-72.11-16.08-94.09-65.64a152.48,152.48,0,0,1-11.92-41.41l-8.8,4.13a202.82,202.82,0,0,0,14,44.55c28.64,64.55,83.49,102.81,122.53,85.55s47.47-83.72,18.84-148.25A201.23,201.23,0,0,0,367.4,385.92Z"/></g></g></g></g></svg>