<svg xmlns="http://www.w3.org/2000/svg" viewBox="0 0 855.51 665"><defs><style>.cls-1{fill:none;stroke:#ffaf2e;stroke-miterlimit:10;stroke-width:13px;}</style></defs><title>Asset 1</title><g id="Layer_2" data-name="Layer 2"><g id="Layer_1-2" data-name="Layer 1"><g id="Layer_2-2" data-name="Layer 2"><g id="Layer_1_copy" data-name="Layer 1 copy"><path class="cls-1" d="M216.61,6.5c.9.3,1.9.6,2.8,1a10.79,10.79,0,0,1,4.5,3.4c13.1,15.9,26.3,31.9,39.5,47.8l90.7,109.8,75.8,91.7,1.7,2,.5-.2V22.3c0-1.2,0-2.3.1-3.5a12.89,12.89,0,0,1,12.5-11.2h218.7c3.2,0,4.7,1.1,5.6,4.3,1.9,6.8,3.8,13.6,5.8,20.4,2.2,7.8,4.4,15.5,6.5,23.3a12.82,12.82,0,0,1,.5,2.7,4.65,4.65,0,0,1-4.2,4.6,25.28,25.28,0,0,1-2.8.1H487.51V312l1.6.3H748c4,.1,5.9,1.6,7,5.4,1.8,6.2,3.5,12.3,5.2,18.5,2.1,7.3,4.1,14.6,6.2,21.9a13.32,13.32,0,0,1,.5,3.4,6.24,6.24,0,0,1-5.6,6,26.13,26.13,0,0,1-2.8,0H487.81c-.5,2-.7,232.6-.2,235.7a11.08,11.08,0,0,0,1.9.2h339.6c4.3.1,6.9,2,8.1,6.1,1.5,5,2.9,10.1,4.3,15.1,2.1,7.5,4.2,14.9,6.3,22.3.4,1.3.8,2.7,1.2,4v5l-2.5,2.6H20.21c-.5-.3-.9-.6-1.4-.9a8.54,8.54,0,0,1-4.3-6.9c-.3-3.3,1.2-5.7,3.6-7.8,13-11.2,25.9-22.5,38.9-33.7q16.8-14.55,33.8-28.9l118.4-101.1,104.9-89.5,6.6-5.7c-1.6-2.8-249-307.4-250.7-308.5.5,3.9.9,7.6,1.3,11.3,1.3,10.5,2.6,21,3.8,31.4s2.5,20.5,3.8,30.7c1.1,8.8,2.1,17.5,3.2,26.3s2.1,17.7,3.2,26.5,2.2,17.8,3.3,26.8,2.2,17.9,3.3,26.8c1.3,10.3,2.5,20.7,3.8,31,1.1,8.9,2.2,17.8,3.3,26.8.7,6.1,1.6,12.2,2.2,18.4q.6,6.3-5.7,6.3h-44c-3.6,0-5.3-1.6-5.8-5.2l-1.8-14.4c-1.4-11.3-2.8-22.7-4.2-34-1.3-10.3-2.5-20.7-3.7-31l-4.8-38.7c-1.3-10.3-2.5-20.7-3.7-31l-4.8-38.7c-1.3-10.3-2.5-20.7-3.7-31-1.4-11.6-2.9-23.1-4.3-34.7-1.2-10.2-2.4-20.6-3.7-30.9C9.61,36.1,8.21,24.1,6.61,12c-.4-2.6.3-4.4,2.6-5.5h76a38.53,38.53,0,0,1,3.5,3.5c11.1,13.6,22.2,27.3,33.2,40.9l102.9,126.7,87.4,107.7q34.2,42.15,68.3,84.2c10,12.4,8.4,29-3.7,39.3-6.3,5.3-12.6,10.7-18.8,16l-127.7,109-79.1,67.5c-.6.5-1.1,1.1-1.8,1.8,4.6.6,280.9.3,282.8-.2V352.7a7.68,7.68,0,0,0-1.8-5.2q-31.8-38.4-63.6-77L269.51,153Q216.26,88.5,163.11,24.1c-3.1-3.8-6.3-7.6-9.4-11.4-1.7-2.1-1.4-3.9.8-5.6a4.35,4.35,0,0,0,.7-.6Z"/></g></g></g></g></svg>